<svg width="31" height="31" viewBox="0 0 31 31" fill="none" xmlns="http://www.w3.org/2000/svg">
<path fill-rule="evenodd" clip-rule="evenodd" d="M8.77787 3.42058C9.2163 3.36065 9.61457 3.13351 9.88937 2.78668C10.1642 2.43984 10.2942 2.00018 10.2523 1.55967C10.2104 1.11915 9.99972 0.711915 9.66443 0.423144C9.32913 0.134373 8.89516 -0.0135584 8.4533 0.0102954C6.90359 0.161153 5.39044 0.34401 3.9413 0.53601C3.06828 0.650967 2.258 1.05207 1.63722 1.67658C1.01644 2.30108 0.620181 3.11375 0.510445 3.98744C0.319926 5.47277 0.152287 6.96095 0.00758739 8.45144C-0.0135742 8.67566 0.00963535 8.90186 0.0758909 9.11711C0.142146 9.33236 0.250151 9.53246 0.393736 9.70597C0.537322 9.87948 0.713678 10.023 0.912735 10.1284C1.11179 10.2337 1.32965 10.2988 1.55387 10.32C1.7781 10.3412 2.00429 10.318 2.21954 10.2517C2.4348 10.1855 2.63489 10.0774 2.80841 9.93386C2.98192 9.79027 3.12545 9.61392 3.23081 9.41486C3.33616 9.21581 3.40128 8.99795 3.42244 8.77372C3.56187 7.28801 3.7333 5.82515 3.9093 4.41487C3.9413 4.16344 4.13787 3.96687 4.38473 3.93487C5.84668 3.7385 7.31207 3.56856 8.78016 3.42515L8.77787 3.42058ZM30.3002 22.1543C30.3326 21.7073 30.1886 21.2654 29.8991 20.9232C29.6097 20.581 29.1977 20.3658 28.7515 20.3237C28.3053 20.2815 27.8604 20.4158 27.512 20.6977C27.1636 20.9797 26.9394 21.3868 26.8876 21.832C26.7482 23.3177 26.5767 24.7806 26.4007 26.1909C26.3857 26.3122 26.3308 26.425 26.2448 26.5119C26.1588 26.5987 26.0464 26.6546 25.9253 26.6709C24.4967 26.8583 23.027 27.0366 21.5299 27.1806C21.3057 27.2022 21.0879 27.2678 20.889 27.3735C20.6901 27.4793 20.514 27.6232 20.3707 27.797C20.2275 27.9709 20.1198 28.1712 20.054 28.3866C19.9882 28.6021 19.9654 28.8284 19.987 29.0526C20.0086 29.2768 20.0742 29.4946 20.18 29.6935C20.2857 29.8923 20.4296 30.0684 20.6035 30.2117C20.7773 30.355 20.9777 30.4626 21.1931 30.5284C21.4085 30.5943 21.6348 30.6171 21.859 30.5954C23.3659 30.4461 24.8701 30.2708 26.371 30.0697C27.244 29.9548 28.0543 29.5537 28.6751 28.9292C29.2959 28.3047 29.6921 27.492 29.8019 26.6183C29.9802 25.1874 30.1562 23.6903 30.3002 22.1543ZM19.987 1.55087C20.0085 1.32659 20.074 1.10875 20.1797 0.909799C20.2854 0.710847 20.4293 0.534689 20.6032 0.391397C20.7771 0.248104 20.9775 0.140489 21.1929 0.0747041C21.4084 0.00891943 21.6348 -0.013744 21.859 0.0080097C23.4087 0.158867 24.9219 0.341724 26.371 0.533724C27.244 0.648681 28.0543 1.04979 28.6751 1.67429C29.2959 2.2988 29.6921 3.11146 29.8019 3.98515C29.9802 5.41601 30.1562 6.91315 30.3002 8.44915C30.3326 8.89616 30.1886 9.33809 29.8991 9.68026C29.6097 10.0224 29.1977 10.2376 28.7515 10.2798C28.3053 10.3219 27.8604 10.1876 27.512 9.9057C27.1636 9.62377 26.9394 9.21661 26.8876 8.77144C26.7482 7.28572 26.5767 5.82287 26.4007 4.41258C26.3857 4.29129 26.3308 4.1784 26.2448 4.09157C26.1588 4.00473 26.0464 3.94882 25.9253 3.93258C24.4632 3.73745 22.9978 3.56752 21.5299 3.42287C21.3056 3.40139 21.0878 3.33591 20.8888 3.23018C20.6899 3.12445 20.5137 2.98054 20.3704 2.80668C20.2271 2.63282 20.1195 2.43242 20.0537 2.21693C19.9879 2.00145 19.9653 1.77512 19.987 1.55087ZM3.42244 21.832C3.38001 21.3792 3.15942 20.9617 2.80921 20.6715C2.459 20.3813 2.00785 20.2421 1.55502 20.2846C1.10218 20.327 0.684744 20.5476 0.394545 20.8978C0.104345 21.248 -0.0348473 21.6992 0.00758739 22.152C0.153873 23.6903 0.327587 25.1874 0.508159 26.616C0.616843 27.4902 1.01235 28.3036 1.63276 28.929C2.25317 29.5544 3.06345 29.9564 3.93673 30.072C5.38816 30.2617 6.9013 30.4446 8.45102 30.5954C8.90385 30.6391 9.35548 30.5011 9.70655 30.2117C10.0576 29.9224 10.2794 29.5054 10.323 29.0526C10.3667 28.5997 10.2286 28.1481 9.93929 27.797C9.64995 27.446 9.233 27.2242 8.78016 27.1806C7.31221 27.0367 5.84686 26.8675 4.38473 26.6732C4.26359 26.6569 4.15123 26.601 4.06522 26.5142C3.97921 26.4273 3.92438 26.3144 3.9093 26.1932C3.72506 24.742 3.56276 23.2881 3.42244 21.832Z" fill="#8FBFFA"/>
<path fill-rule="evenodd" clip-rule="evenodd" d="M15.1114 10.2023H15.1982C17.2097 10.2023 19.3971 10.2023 21.2759 10.5292C21.924 10.646 22.5225 10.9536 22.9948 11.4125C23.4671 11.8714 23.7918 12.4607 23.9274 13.1052C24.2017 14.3623 24.2017 15.4069 24.2017 17.3109V17.4503C24.2017 19.352 24.2017 20.3989 23.9274 21.656C23.7914 22.3 23.4666 22.8889 22.9943 23.3473C22.522 23.8058 21.9237 24.113 21.2759 24.2297C19.3971 24.5589 17.2074 24.5589 15.1982 24.5589H15.1114C13.0999 24.5589 10.9148 24.5589 9.03366 24.2297C8.38558 24.1128 7.7871 23.8053 7.31478 23.3464C6.84246 22.8875 6.51776 22.2982 6.38223 21.6537C6.10794 20.3966 6.10794 19.352 6.11023 17.4503V17.3086C6.11023 15.4069 6.11023 14.36 6.38223 13.1052C6.51776 12.4607 6.84246 11.8714 7.31478 11.4125C7.7871 10.9536 8.38558 10.646 9.03366 10.5292C10.9148 10.2023 13.1022 10.2023 15.1137 10.2023H15.1114Z" fill="#8FBFFA"/>
<path fill-rule="evenodd" clip-rule="evenodd" d="M18.1559 6.3623C18.1559 7.60115 17.7057 8.4903 16.8691 8.96801V10.2069C16.3068 10.2 15.7445 10.2 15.2005 10.2H15.1091C14.5605 10.2 14.0028 10.2 13.4405 10.2069V8.96572C12.6017 8.49258 12.1514 7.60115 12.1514 6.36001C12.1514 4.44001 13.2325 3.36115 15.1525 3.36115C17.0725 3.36115 18.1537 4.4423 18.1537 6.3623H18.1559Z" fill="#2859C5"/>
<path fill-rule="evenodd" clip-rule="evenodd" d="M18.4237 15.144C18.0448 15.144 17.6814 15.2945 17.4135 15.5624C17.1456 15.8303 16.9951 16.1937 16.9951 16.5726V17.5463C16.9951 17.9252 17.1456 18.2885 17.4135 18.5564C17.6814 18.8244 18.0448 18.9749 18.4237 18.9749C18.8026 18.9749 19.1659 18.8244 19.4338 18.5564C19.7018 18.2885 19.8523 17.9252 19.8523 17.5463V16.5726C19.8523 16.1937 19.7018 15.8303 19.4338 15.5624C19.1659 15.2945 18.8026 15.144 18.4237 15.144Z" fill="#2859C5"/>
<path fill-rule="evenodd" clip-rule="evenodd" d="M11.8841 15.144C11.5053 15.144 11.1419 15.2945 10.874 15.5624C10.6061 15.8303 10.4556 16.1937 10.4556 16.5726V17.5463C10.4556 17.9252 10.6061 18.2885 10.874 18.5564C11.1419 18.8244 11.5053 18.9749 11.8841 18.9749C12.263 18.9749 12.6264 18.8244 12.8943 18.5564C13.1622 18.2885 13.3127 17.9252 13.3127 17.5463V16.5726C13.3127 16.1937 13.1622 15.8303 12.8943 15.5624C12.6264 15.2945 12.263 15.144 11.8841 15.144Z" fill="#2859C5"/>
</svg>
