<svg width="32" height="32" viewBox="0 0 32 32" fill="none" xmlns="http://www.w3.org/2000/svg">
<g clip-path="url(#clip0_51_3207)">
<path d="M28.6299 9.07794C29.6246 10.607 29.1235 12.4845 27.8359 13.7767L13.7735 27.8888C13.3301 28.3338 12.7453 28.6071 12.1182 28.6435C10.9683 28.7101 8.7742 28.8081 5.42532 28.8402C5.28546 28.8415 5.14757 28.7993 5.0354 28.7158C4.74743 28.5013 4.42117 28.2309 4.09491 27.9047C3.76854 27.5783 3.49809 27.2519 3.28356 26.9639C3.20003 26.8517 3.15786 26.7139 3.15921 26.574C3.19133 23.2252 3.28926 21.0311 3.35596 19.8813C3.39235 19.2541 3.66561 18.6694 4.11058 18.226L18.2228 4.1636C19.515 2.87598 21.3924 2.3749 22.9215 3.36966C23.8089 3.94697 24.8762 4.77349 26.0511 5.9484C27.226 7.12327 28.0525 8.19047 28.6299 9.07794Z" fill="#DEE7FA"/>
<path d="M29.0373 6.9236L27.9822 8.1546C27.4766 7.48287 26.8428 6.73987 26.0513 5.9484C25.2601 5.1572 24.5177 4.52399 23.8462 4.01847L25.0768 2.96312C25.8017 2.34172 26.7627 1.97515 27.6061 2.42299C27.9576 2.60969 28.3456 2.87883 28.7336 3.26682C29.1216 3.6548 29.3907 4.04279 29.5774 4.39437C30.0253 5.23769 29.6587 6.19865 29.0373 6.9236Z" fill="#EAF1FF"/>
<path d="M12.9593 28.4441C12.695 28.5577 12.4115 28.6263 12.1186 28.6433C10.9688 28.71 8.7747 28.8079 5.42582 28.8401C5.28596 28.8414 5.14807 28.7992 5.0359 28.7157C4.74793 28.5012 4.42167 28.2308 4.09541 27.9045C3.76903 27.5782 3.49859 27.2518 3.28406 26.9638C3.20052 26.8516 3.15836 26.7137 3.1597 26.5739C3.19182 23.2251 3.28976 21.0309 3.35646 19.8811C3.37348 19.5878 3.44233 19.3037 3.55633 19.0391C4.94623 20.0641 6.7551 21.5197 8.56397 23.3223C10.4306 25.1825 11.9264 27.0427 12.9593 28.4441Z" fill="#EAF1FF"/>
<path d="M28.6303 9.07794C29.6251 10.607 29.124 12.4845 27.8364 13.7767L13.774 27.8888C13.3306 28.3338 12.7458 28.6071 12.1186 28.6435C10.9688 28.7101 8.7747 28.8081 5.42582 28.8402C5.28596 28.8415 5.14807 28.7993 5.0359 28.7158C4.74793 28.5013 4.42167 28.2309 4.09541 27.9047C3.76903 27.5783 3.49859 27.2519 3.28406 26.9639C3.20052 26.8517 3.15836 26.7139 3.1597 26.574C3.19182 23.2252 3.28976 21.0311 3.35646 19.8813C3.39284 19.2541 3.66611 18.6694 4.11107 18.226L18.2233 4.1636C19.5155 2.87598 21.3929 2.3749 22.922 3.36966C23.8094 3.94697 24.8767 4.77349 26.0516 5.9484C27.2265 7.12327 28.053 8.19047 28.6303 9.07794Z" stroke="#86AFF4" stroke-width="3" stroke-linecap="round" stroke-linejoin="round"/>
<path d="M23.8457 4.01816L25.0766 2.96312C25.8015 2.34172 26.7625 1.97515 27.6058 2.42299C27.9574 2.60969 28.3454 2.87883 28.7334 3.26682C29.1213 3.6548 29.3905 4.04279 29.5772 4.39437C30.025 5.23769 29.6584 6.19865 29.037 6.9236L27.982 8.1546" stroke="#86AFF4" stroke-width="3" stroke-linecap="round" stroke-linejoin="round"/>
<path d="M24.9929 16.1144C25.2207 16.6176 25.8131 16.8408 26.3163 16.6131C26.8194 16.3854 27.0427 15.7928 26.8149 15.2897L24.9929 16.1144ZM16.7105 5.18529C16.2073 4.95756 15.6148 5.18082 15.3871 5.68397C15.1593 6.18711 15.3826 6.77963 15.8857 7.00736L16.7105 5.18529ZM25.9039 15.702C26.8149 15.2897 26.8148 15.2894 26.8147 15.289C26.8146 15.2889 26.8144 15.2886 26.8143 15.2883C26.8141 15.2878 26.8139 15.2873 26.8136 15.2868C26.8131 15.2856 26.8125 15.2844 26.8119 15.283C26.8107 15.2803 26.8091 15.2771 26.8074 15.2734C26.8039 15.2659 26.7995 15.2565 26.794 15.2451C26.7831 15.2223 26.7681 15.1916 26.7486 15.1534C26.7097 15.0768 26.653 14.9698 26.5758 14.8338C26.4214 14.5619 26.185 14.1746 25.8444 13.685C25.1629 12.7055 24.0653 11.3181 22.3737 9.62649L20.9595 11.0408C22.5699 12.6512 23.5909 13.9479 24.2026 14.8272C24.5085 15.2669 24.7124 15.6026 24.8365 15.8213C24.8987 15.9307 24.9409 16.0108 24.966 16.0602C24.9785 16.0849 24.9868 16.1019 24.9912 16.111C24.9934 16.1156 24.9946 16.1181 24.9949 16.1187C24.995 16.119 24.9949 16.1188 24.9945 16.118C24.9944 16.1177 24.9942 16.1172 24.9939 16.1166C24.9937 16.1163 24.9936 16.116 24.9935 16.1156C24.9933 16.1154 24.9932 16.1151 24.9932 16.115C24.9931 16.1147 24.9929 16.1144 25.9039 15.702ZM22.3737 9.62649C20.6821 7.93496 19.2947 6.8373 18.3152 6.15586C17.8256 5.8152 17.4383 5.57882 17.1663 5.42444C17.0303 5.34725 16.9233 5.29058 16.8467 5.25165C16.8085 5.23218 16.7779 5.21716 16.7551 5.20621C16.7437 5.20074 16.7343 5.19629 16.7268 5.19282C16.7231 5.19108 16.7199 5.18959 16.7171 5.18834C16.7158 5.18771 16.7145 5.18714 16.7134 5.18664C16.7129 5.18638 16.7123 5.18614 16.7119 5.18592C16.7116 5.18581 16.7113 5.18565 16.7111 5.1856C16.7108 5.18544 16.7105 5.18529 16.2981 6.09632C15.8857 7.00736 15.8855 7.00723 15.8851 7.00703C15.8851 7.00703 15.8847 7.00689 15.8845 7.00683C15.8842 7.00663 15.8839 7.00649 15.8835 7.00636C15.8829 7.00609 15.8825 7.00583 15.8821 7.0057C15.8814 7.00536 15.8812 7.00523 15.8815 7.00536C15.8821 7.00563 15.8846 7.00683 15.8892 7.00903C15.8983 7.01343 15.9153 7.0217 15.9399 7.0343C15.9893 7.05936 16.0695 7.10156 16.1789 7.16369C16.3976 7.28783 16.7333 7.49169 17.173 7.79763C18.0523 8.40936 19.3491 9.43029 20.9595 11.0408L22.3737 9.62649Z" fill="#86AFF4"/>
<path d="M12.9593 28.4441C11.9264 27.0428 10.4306 25.1826 8.56393 23.3225C6.755 21.5198 4.94607 20.0641 3.55615 19.0391" stroke="#86AFF4" stroke-width="3" stroke-linecap="round" stroke-linejoin="round"/>
<path d="M17.4857 5.19103C17.9592 5.47518 18.5735 5.32161 18.8576 4.84803C19.1418 4.37445 18.9882 3.76019 18.5146 3.47605L17.4857 5.19103ZM15.1006 3.41883L15.231 2.42737L15.1006 3.41883ZM13.2191 4.11459L13.9262 4.82169L13.2191 4.11459ZM6.62639 9.2931C6.23586 9.68363 6.23586 10.3168 6.62639 10.7073C7.0169 11.0978 7.6501 11.0978 8.04063 10.7073L6.62639 9.2931ZM18.5146 3.47605C17.4077 2.81188 16.106 2.54246 15.231 2.42737L14.9702 4.41029C15.7444 4.51213 16.7266 4.73555 17.4857 5.19103L18.5146 3.47605ZM12.512 3.40748L6.62639 9.2931L8.04063 10.7073L13.9262 4.82169L12.512 3.40748ZM15.231 2.42737C14.166 2.28726 13.1889 2.73056 12.512 3.40748L13.9262 4.82169C14.2495 4.49842 14.6328 4.36591 14.9702 4.41029L15.231 2.42737Z" fill="#86AFF4"/>
<path d="M4 28L2 30" stroke="#86AFF4" stroke-width="3" stroke-linecap="round" stroke-linejoin="round"/>
</g>
<defs>
<clipPath id="clip0_51_3207">
<rect width="32" height="32" fill="white"/>
</clipPath>
</defs>
</svg>
