<svg width="180" height="32" viewBox="0 0 180 32" fill="none" xmlns="http://www.w3.org/2000/svg">
<rect x="0.5" y="0.5" width="179" height="31" rx="15.5" fill="white"/>
<path d="M22.5898 21.3032L21.4113 22.4817C19.7841 24.1089 17.1459 24.1089 15.5187 22.4817C13.8915 20.8546 13.8915 18.2164 15.5187 16.5892L16.6972 15.4107M27.3038 16.5892L28.4824 15.4107C30.1095 13.7835 30.1095 11.1453 28.4824 9.51812C26.8552 7.89093 24.217 7.89093 22.5898 9.51812L21.4113 10.6966M19.0839 18.9166L24.9172 13.0832" stroke="#4D5069" stroke-width="2" stroke-linecap="round" stroke-linejoin="round"/>
<path d="M50.6777 9.35742V15.7285H49.1738V9.35742H50.6777ZM40.5059 14.6211C42.4268 14.0537 43.4863 12.6592 43.5615 11.2031H40.9023V9.97266H47.6973V11.2031H45.1064C45.1748 12.5703 46.2207 13.8691 48.1348 14.3887L47.3965 15.5645C45.9541 15.1475 44.9219 14.2725 44.3613 13.1514C43.8008 14.3887 42.7275 15.3662 41.2031 15.8242L40.5059 14.6211ZM42.502 17.4102V16.248H50.7051V19.4336H44.0195V20.4316H51.0742V21.6074H42.5293V18.3262H49.1875V17.4102H42.502ZM63.7891 15.5371V16.7539H59.0176V19.0234H57.5137V16.7539H52.4961V15.5371H63.7891ZM53.8633 21.4707V17.8887H55.3809V20.2402H62.5449V21.4707H53.8633ZM53.9316 14.3887V9.91797H62.3398V14.3887H53.9316ZM55.4082 13.1992H60.8359V11.1074H55.4082V13.1992ZM78.2266 9.37109V16.9043H76.6953V9.37109H78.2266ZM68.5605 11.3535V10.1094H74.2617V13.7324H70.0781V15.0586C72.1904 15.0518 73.7012 14.9834 75.4648 14.7168L75.6562 15.9336C73.708 16.2549 72.0332 16.3096 69.6406 16.3027H68.5879V12.5977H72.7578V11.3535H68.5605ZM69.8457 19.4199C69.8389 17.957 71.4385 17.123 74.0703 17.123C76.6885 17.123 78.2949 17.957 78.2949 19.4199C78.2949 20.8555 76.6885 21.7031 74.0703 21.7031C71.4385 21.7031 69.8389 20.8555 69.8457 19.4199ZM71.3496 19.4199C71.3496 20.1309 72.3203 20.5068 74.0703 20.5137C75.8066 20.5068 76.7705 20.1309 76.7773 19.4199C76.7705 18.7021 75.8066 18.3125 74.0703 18.3125C72.3203 18.3125 71.3496 18.7021 71.3496 19.4199ZM90.0527 10.5059V11.9824C90.0527 13.7803 90.0527 15.4756 89.5059 18.0938L87.9883 17.957C88.2412 16.877 88.3779 15.9268 88.46 15.0518L81.1797 15.4277L80.9746 14.1973L88.5283 13.9102C88.5557 13.2471 88.5625 12.6113 88.5625 11.9824V11.7363H81.3438V10.5059H90.0527ZM80.0312 20.1445V18.9004H91.2969V20.1445H80.0312ZM101.811 9.35742V14.1836H103.643V15.4551H101.811V21.6895H100.293V9.35742H101.811ZM92.0625 18.3125C95.0703 16.8086 96.6973 14.7168 96.998 11.9004H92.7324V10.6426H98.543C98.5361 14.2725 97.0322 17.4648 92.9238 19.4883L92.0625 18.3125ZM118.818 15.5781V16.7949H107.553V15.5781H112.406V14.3887H109.016V9.6582H110.52V10.8887H115.852V9.6582H117.355V14.3887H113.938V15.5781H118.818ZM108.797 18.9824V17.7793H117.438V21.7168H115.92V18.9824H108.797ZM110.52 13.1719H115.852V12.0234H110.52V13.1719ZM124.068 12.3242C124.055 14.5322 125.162 16.7607 127.076 17.6836L126.146 18.9004C124.807 18.2236 123.843 16.918 123.316 15.3457C122.776 17.0273 121.765 18.4219 120.35 19.1328L119.42 17.916C121.409 16.9727 122.544 14.6074 122.551 12.3242V10.3555H124.068V12.3242ZM127.814 21.7168V9.35742H129.332V14.1973H131.232V15.4961H129.332V21.7168H127.814ZM131.697 15.4414C132.408 15.4414 133.324 15.4414 134.295 15.4141V14.1973H132.422V10.0957H137.535V11.3262H133.898V12.9941H137.576V14.1973H135.73V15.3525C136.482 15.3047 137.214 15.2432 137.863 15.1543L137.945 16.2207C135.99 16.5898 133.454 16.6309 131.861 16.6309L131.697 15.4414ZM132.299 20.459C133.926 20.0078 134.732 18.8662 134.732 17.7109V17.4102H136.182V17.7109C136.182 18.6406 136.674 19.6592 137.733 20.2949C138.8 19.6387 139.285 18.6064 139.285 17.7109V17.4102H140.775V17.7109C140.769 18.9141 141.562 20.0283 143.182 20.459L142.471 21.5801C141.261 21.2109 140.44 20.4727 139.996 19.5361C139.6 20.4658 138.875 21.2861 137.74 21.7031C136.585 21.293 135.854 20.4932 135.457 19.5566C135.013 20.4795 134.206 21.2178 133.037 21.5801L132.299 20.459ZM138.41 16.877V9.58984H139.832V12.6523H140.953V9.35742H142.416V16.9316H140.953V13.8828H139.832V16.877H138.41ZM147.229 10.2598C148.896 10.2598 150.134 11.6543 150.353 13.9102H152.711V9.35742H154.215V21.7305H152.711V15.1406H150.366C150.202 17.5264 148.944 18.9961 147.229 18.9961C145.369 18.9961 144.05 17.3076 144.057 14.6211C144.05 11.9551 145.369 10.2598 147.229 10.2598ZM145.52 14.6211C145.513 16.5215 146.21 17.6221 147.229 17.6289C148.254 17.6221 148.944 16.5215 148.951 14.6211C148.944 12.7344 148.254 11.627 147.229 11.627C146.21 11.627 145.513 12.7344 145.52 14.6211ZM167.244 18.9688V20.2129H155.951V18.9688H158.562V15.8447C157.578 15.2773 156.983 14.3887 156.99 13.2949C156.983 11.3262 158.911 10.0273 161.57 10.0273C164.243 10.0273 166.185 11.3262 166.178 13.2949C166.185 14.375 165.604 15.2432 164.646 15.8105V18.9688H167.244ZM158.48 13.2949C158.474 14.5596 159.725 15.3662 161.57 15.3594C163.409 15.3662 164.688 14.5596 164.688 13.2949C164.688 12.0098 163.409 11.2236 161.57 11.2305C159.725 11.2236 158.474 12.0098 158.48 13.2949ZM160.066 18.9688H163.102V16.3916C162.63 16.4941 162.117 16.5488 161.57 16.5488C161.037 16.5488 160.531 16.4941 160.066 16.3984V18.9688Z" fill="#4D5069"/>
<rect x="0.5" y="0.5" width="179" height="31" rx="15.5" stroke="#DBDBDC"/>
</svg>
