<svg width="32" height="32" viewBox="0 0 32 32" fill="none" xmlns="http://www.w3.org/2000/svg">
<g clip-path="url(#clip0_105_4874)">
<path fill-rule="evenodd" clip-rule="evenodd" d="M29.0789 0.0845704C28.394 -0.0653857 27.6806 -0.0178277 27.0217 0.221713L2.53028 8.39543L2.52114 8.39771C1.90046 8.61047 1.34751 8.98443 0.918955 9.48127C0.490397 9.97811 0.201643 10.58 0.0822836 11.2251C-0.0372856 11.8164 -0.0086491 12.4281 0.165639 13.0056C0.339926 13.5831 0.654446 14.1085 1.08114 14.5349L6.99428 20.4434L6.8 27.8789C6.79478 28.0776 6.84148 28.2742 6.93548 28.4493C7.02949 28.6245 7.16755 28.7721 7.33603 28.8776C7.50452 28.983 7.6976 29.0427 7.89621 29.0508C8.09483 29.0588 8.29211 29.0149 8.46857 28.9234L13.072 26.5417L17.4537 30.9051C17.8972 31.3574 18.4506 31.6866 19.0597 31.8605C19.6688 32.0344 20.3126 32.047 20.928 31.8971C21.5447 31.7527 22.114 31.4524 22.5815 31.025C23.0489 30.5976 23.3988 30.0574 23.5977 29.456V29.4537L31.7691 4.96914C31.9498 4.47284 32.0223 3.94362 31.9816 3.41701C31.9409 2.89041 31.788 2.37861 31.5332 1.91596C31.2783 1.45332 30.9275 1.05054 30.5042 0.734666C30.0809 0.418792 29.5949 0.197133 29.0789 0.0845704Z" fill="#DEE7FA"/>
<path d="M6.99204 20.4434L6.79776 27.8788C6.79254 28.0776 6.83924 28.2742 6.93324 28.4493C7.02725 28.6245 7.16531 28.7721 7.33379 28.8776C7.50228 28.983 7.69536 29.0427 7.89397 29.0508C8.09259 29.0588 8.28987 29.0149 8.46633 28.9234L13.0698 26.5417L6.98976 20.4434H6.99204Z" fill="#86AFF4"/>
<path fill-rule="evenodd" clip-rule="evenodd" d="M6.9874 20.6011L23.0903 8.90514C23.2421 8.79483 23.3708 8.65569 23.4689 8.49565C23.567 8.33561 23.6327 8.15782 23.662 7.97242C23.6914 7.78702 23.684 7.59765 23.6402 7.41511C23.5965 7.23258 23.5171 7.06045 23.4068 6.90857C23.2965 6.75669 23.1574 6.62802 22.9973 6.52991C22.8373 6.4318 22.6595 6.36618 22.4741 6.33678C22.2887 6.30739 22.0993 6.31479 21.9168 6.35858C21.7343 6.40237 21.5621 6.48169 21.4103 6.592L5.0354 18.4869L6.99197 20.4434L6.9874 20.6011Z" fill="#86AFF4"/>
</g>
<defs>
<clipPath id="clip0_105_4874">
<rect width="32" height="32" fill="white"/>
</clipPath>
</defs>
</svg>
