<svg width="29" height="28" viewBox="0 0 29 28" fill="none" xmlns="http://www.w3.org/2000/svg">
<g clip-path="url(#clip0_105_5094)">
<path d="M0.5 14C0.5 17.713 1.975 21.274 4.60051 23.8995C7.22601 26.525 10.787 28 14.5 28C18.213 28 21.774 26.525 24.3995 23.8995C27.025 21.274 28.5 17.713 28.5 14C28.5 10.287 27.025 6.72601 24.3995 4.10051C21.774 1.475 18.213 0 14.5 0C10.787 0 7.22601 1.475 4.60051 4.10051C1.975 6.72601 0.5 10.287 0.5 14Z" fill="#DDE8FF"/>
<path d="M12 10.5C12 10.0055 12.1466 9.5222 12.4213 9.11107C12.696 8.69995 13.0865 8.37952 13.5433 8.1903C14.0001 8.00108 14.5028 7.95157 14.9877 8.04804C15.4727 8.1445 15.9181 8.3826 16.2678 8.73223C16.6174 9.08186 16.8555 9.52732 16.952 10.0123C17.0484 10.4972 16.9989 10.9999 16.8097 11.4567C16.6205 11.9135 16.3 12.304 15.8889 12.5787C15.4778 12.8534 14.9945 13 14.5 13C14.1022 13 13.7206 13.158 13.4393 13.4393C13.158 13.7206 13 14.1022 13 14.5V15.792C13 16.1898 13.158 16.5714 13.4393 16.8527C13.7206 17.134 14.1022 17.292 14.5 17.292C14.8978 17.292 15.2794 17.134 15.5607 16.8527C15.842 16.5714 16 16.1898 16 15.792C16.9851 15.5133 17.8729 14.9652 18.5635 14.2095C19.2541 13.4538 19.7202 12.5203 19.9093 11.5142C20.0984 10.5081 20.0031 9.46912 19.634 8.51421C19.2649 7.5593 18.6367 6.72631 17.82 6.10892C17.0034 5.49154 16.0307 5.11424 15.0113 5.01948C13.9919 4.92471 12.9664 5.11623 12.0499 5.57249C11.1334 6.02875 10.3624 6.73167 9.82364 7.60217C9.28484 8.47267 8.9996 9.47624 9 10.5C9 10.8978 9.15804 11.2794 9.43934 11.5607C9.72065 11.842 10.1022 12 10.5 12C10.8978 12 11.2794 11.842 11.5607 11.5607C11.842 11.2794 12 10.8978 12 10.5Z" fill="#4B568B"/>
<path d="M14.5 23C15.0304 23 15.5391 22.7893 15.9142 22.4142C16.2893 22.0391 16.5 21.5304 16.5 21C16.5 20.4696 16.2893 19.9609 15.9142 19.5858C15.5391 19.2107 15.0304 19 14.5 19C13.9696 19 13.4609 19.2107 13.0858 19.5858C12.7107 19.9609 12.5 20.4696 12.5 21C12.5 21.5304 12.7107 22.0391 13.0858 22.4142C13.4609 22.7893 13.9696 23 14.5 23Z" fill="#4B568B"/>
</g>
<defs>
<clipPath id="clip0_105_5094">
<rect width="28" height="28" fill="white" transform="translate(0.5)"/>
</clipPath>
</defs>
</svg>
