<svg width="32" height="32" viewBox="0 0 32 32" fill="none" xmlns="http://www.w3.org/2000/svg">
<path d="M6.6665 11.3333C6.6665 16.488 10.8452 20.6667 15.9998 20.6667C21.1545 20.6667 25.3332 16.488 25.3332 11.3333C25.3332 6.17867 21.1545 2 15.9998 2C10.8452 2 6.6665 6.17867 6.6665 11.3333Z" fill="#EAF1FF"/>
<path d="M6.6665 11.3333C11.546 11.3099 15.5492 7.22147 15.9998 2C11.1204 2.02345 7.1171 6.11185 6.6665 11.3333Z" fill="#DEE7FA"/>
<path d="M25.3333 11.3333C20.4539 11.3099 16.4506 7.22147 16 2C20.8795 2.02345 24.8827 6.11185 25.3333 11.3333Z" fill="#DEE7FA"/>
<path d="M12.2343 19.8763C8.8383 20.8893 6.1833 23.2339 5.1431 26.1702C4.57884 27.763 5.74788 29.2612 7.42084 29.4989C9.21937 29.7546 11.991 30.0004 15.9998 30.0004C20.0086 30.0004 22.7803 29.7546 24.5788 29.4989C26.2518 29.2612 27.4208 27.763 26.8566 26.1702C25.8164 23.234 23.1614 20.8893 19.7653 19.8763C18.6136 20.3847 17.3397 20.6671 15.9998 20.6671C14.66 20.6671 13.386 20.3847 12.2343 19.8763Z" fill="#DEE7FA"/>
<path fill-rule="evenodd" clip-rule="evenodd" d="M15.9998 3C11.3975 3 7.6665 6.73096 7.6665 11.3333C7.6665 15.9357 11.3975 19.6667 15.9998 19.6667C20.6022 19.6667 24.3332 15.9357 24.3332 11.3333C24.3332 6.73096 20.6022 3 15.9998 3ZM5.6665 11.3333C5.6665 5.62639 10.2929 1 15.9998 1C21.7068 1 26.3332 5.62639 26.3332 11.3333C26.3332 17.0403 21.7068 21.6667 15.9998 21.6667C10.2929 21.6667 5.6665 17.0403 5.6665 11.3333Z" fill="#86AFF4"/>
<path fill-rule="evenodd" clip-rule="evenodd" d="M13.1927 19.5898C13.3506 20.119 13.0495 20.676 12.5203 20.8339C9.37861 21.771 7.00253 23.9158 6.08581 26.5034C5.78394 27.3555 6.35207 28.3363 7.56168 28.5082L7.42095 29.4983L7.56168 28.5082C9.3074 28.7563 12.0315 28.9997 15.9999 28.9997C19.9683 28.9997 22.6925 28.7563 24.4382 28.5082C25.6478 28.3363 26.2159 27.3555 25.9141 26.5034C24.9974 23.9158 22.6213 21.771 19.4796 20.8339C18.9503 20.676 18.6493 20.119 18.8071 19.5898C18.965 19.0605 19.522 18.7595 20.0513 18.9174C23.7017 20.0062 26.6356 22.5508 27.7993 25.8356L26.8567 26.1695L27.7993 25.8356C28.6259 28.1691 26.8559 30.1847 24.7196 30.4883L24.7196 30.4883C22.8683 30.7515 20.049 30.9997 15.9999 30.9997C11.9508 30.9997 9.13159 30.7515 7.28025 30.4883L7.28022 30.4883C5.1439 30.1847 3.37395 28.169 4.20062 25.8356L5.14321 26.1695L4.20062 25.8356C5.36428 22.5508 8.29822 20.0062 11.9486 18.9174C12.4778 18.7595 13.0348 19.0605 13.1927 19.5898Z" fill="#86AFF4"/>
<path fill-rule="evenodd" clip-rule="evenodd" d="M15.9998 1C16.5521 1 16.9998 1.44772 16.9998 2C16.9998 6.60238 20.7308 10.3333 25.3332 10.3333C25.8855 10.3333 26.3332 10.781 26.3332 11.3333C26.3332 11.8856 25.8855 12.3333 25.3332 12.3333C21.2157 12.3333 17.6607 9.92511 15.9998 6.44033C14.339 9.92511 10.784 12.3333 6.6665 12.3333C6.11422 12.3333 5.6665 11.8856 5.6665 11.3333C5.6665 10.781 6.11422 10.3333 6.6665 10.3333C11.2689 10.3333 14.9998 6.60238 14.9998 2C14.9998 1.44772 15.4476 1 15.9998 1Z" fill="#86AFF4"/>
<path d="M19.5025 16.2153C19.8055 15.7536 19.6769 15.1336 19.2151 14.8306C18.7534 14.5276 18.1334 14.6562 17.8304 15.118L19.5025 16.2153ZM14.1692 15.118C13.8661 14.6562 13.2462 14.5276 12.7845 14.8306C12.3227 15.1336 12.1941 15.7536 12.4971 16.2153L14.1692 15.118ZM17.8304 15.118C17.4701 15.6671 16.7805 16 15.9998 16C15.2191 16 14.5295 15.6671 14.1692 15.118L12.4971 16.2153C13.3034 17.4439 14.6971 18 15.9998 18C17.3025 18 18.6962 17.4439 19.5025 16.2153L17.8304 15.118Z" fill="#86AFF4"/>
<path fill-rule="evenodd" clip-rule="evenodd" d="M12.6665 11C13.2188 11 13.6665 11.4477 13.6665 12V12.3333C13.6665 12.8856 13.2188 13.3333 12.6665 13.3333C12.1142 13.3333 11.6665 12.8856 11.6665 12.3333V12C11.6665 11.4477 12.1142 11 12.6665 11Z" fill="#86AFF4"/>
<path fill-rule="evenodd" clip-rule="evenodd" d="M19.334 11C19.8863 11 20.334 11.4477 20.334 12V12.3333C20.334 12.8856 19.8863 13.3333 19.334 13.3333C18.7817 13.3333 18.334 12.8856 18.334 12.3333V12C18.334 11.4477 18.7817 11 19.334 11Z" fill="#86AFF4"/>
</svg>
