<svg width="32" height="32" viewBox="0 0 32 32" fill="none" xmlns="http://www.w3.org/2000/svg">
<g clip-path="url(#clip0_160_3305)">
<path d="M28.6299 9.07794C29.6246 10.607 29.1235 12.4845 27.8359 13.7767L13.7735 27.8888C13.3301 28.3338 12.7453 28.6071 12.1182 28.6435C10.9683 28.7101 8.7742 28.8081 5.42532 28.8402C5.28546 28.8415 5.14757 28.7993 5.0354 28.7158C4.74743 28.5013 4.42117 28.2309 4.09491 27.9047C3.76854 27.5783 3.49809 27.2519 3.28356 26.9639C3.20003 26.8517 3.15786 26.7139 3.15921 26.574C3.19133 23.2252 3.28926 21.0311 3.35596 19.8813C3.39235 19.2541 3.66561 18.6694 4.11058 18.226L18.2228 4.1636C19.515 2.87598 21.3924 2.3749 22.9215 3.36966C23.8089 3.94697 24.8762 4.77349 26.0511 5.9484C27.226 7.12327 28.0525 8.19047 28.6299 9.07794Z" fill="#DEE7FA"/>
<path d="M29.0373 6.9236L27.9822 8.1546C27.4766 7.48287 26.8428 6.73987 26.0513 5.9484C25.2601 5.1572 24.5177 4.52399 23.8462 4.01847L25.0768 2.96312C25.8017 2.34172 26.7627 1.97515 27.6061 2.42299C27.9576 2.60969 28.3456 2.87883 28.7336 3.26682C29.1216 3.6548 29.3907 4.04279 29.5774 4.39437C30.0253 5.23769 29.6587 6.19865 29.0373 6.9236Z" fill="#EAF1FF"/>
<path d="M12.9593 28.4441C12.695 28.5577 12.4115 28.6263 12.1186 28.6433C10.9688 28.71 8.7747 28.8079 5.42582 28.8401C5.28596 28.8414 5.14807 28.7992 5.0359 28.7157C4.74793 28.5012 4.42167 28.2308 4.09541 27.9045C3.76903 27.5782 3.49859 27.2518 3.28406 26.9638C3.20052 26.8516 3.15836 26.7137 3.1597 26.5739C3.19182 23.2251 3.28976 21.0309 3.35646 19.8811C3.37348 19.5878 3.44233 19.3037 3.55633 19.0391C4.94623 20.0641 6.7551 21.5197 8.56397 23.3223C10.4306 25.1825 11.9264 27.0427 12.9593 28.4441Z" fill="#EAF1FF"/>
<path d="M28.6303 9.07794C29.6251 10.607 29.124 12.4845 27.8364 13.7767L13.774 27.8888C13.3306 28.3338 12.7458 28.6071 12.1186 28.6435C10.9688 28.7101 8.7747 28.8081 5.42582 28.8402C5.28596 28.8415 5.14807 28.7993 5.0359 28.7158C4.74793 28.5013 4.42167 28.2309 4.09541 27.9047C3.76903 27.5783 3.49859 27.2519 3.28406 26.9639C3.20052 26.8517 3.15836 26.7139 3.1597 26.574C3.19182 23.2252 3.28976 21.0311 3.35646 19.8813C3.39284 19.2541 3.66611 18.6694 4.11107 18.226L18.2233 4.1636C19.5155 2.87598 21.3929 2.3749 22.922 3.36966C23.8094 3.94697 24.8767 4.77349 26.0516 5.9484C27.2265 7.12327 28.053 8.19047 28.6303 9.07794Z" stroke="#86AFF4" stroke-width="3" stroke-linecap="round" stroke-linejoin="round"/>
<path d="M23.8457 4.01816L25.0766 2.96312C25.8015 2.34172 26.7625 1.97515 27.6058 2.42299C27.9574 2.60969 28.3454 2.87883 28.7334 3.26682C29.1213 3.6548 29.3905 4.04279 29.5772 4.39437C30.025 5.23769 29.6584 6.19865 29.037 6.9236L27.982 8.1546" stroke="#86AFF4" stroke-width="3" stroke-linecap="round" stroke-linejoin="round"/>
<path d="M24.9929 16.1145C25.2207 16.6176 25.8131 16.8409 26.3163 16.6132C26.8194 16.3854 27.0427 15.7929 26.8149 15.2898L24.9929 16.1145ZM16.7105 5.18535C16.2073 4.95762 15.6148 5.18088 15.3871 5.68403C15.1593 6.18718 15.3826 6.77969 15.8857 7.00742L16.7105 5.18535ZM25.9039 15.7021C26.8149 15.2898 26.8148 15.2894 26.8147 15.2891C26.8146 15.289 26.8144 15.2886 26.8143 15.2884C26.8141 15.2879 26.8139 15.2874 26.8136 15.2868C26.8131 15.2857 26.8125 15.2844 26.8119 15.2831C26.8107 15.2804 26.8091 15.2772 26.8074 15.2734C26.8039 15.266 26.7995 15.2566 26.794 15.2452C26.7831 15.2224 26.7681 15.1917 26.7486 15.1534C26.7097 15.0769 26.653 14.9699 26.5758 14.8339C26.4214 14.562 26.185 14.1747 25.8444 13.685C25.1629 12.7056 24.0653 11.3182 22.3737 9.62656L20.9595 11.0408C22.5699 12.6512 23.5909 13.948 24.2026 14.8272C24.5085 15.267 24.7124 15.6026 24.8365 15.8214C24.8987 15.9308 24.9409 16.0109 24.966 16.0603C24.9785 16.085 24.9868 16.102 24.9912 16.111C24.9934 16.1156 24.9946 16.1182 24.9949 16.1188C24.995 16.119 24.9949 16.1188 24.9945 16.1181C24.9944 16.1178 24.9942 16.1173 24.9939 16.1167C24.9937 16.1164 24.9936 16.116 24.9935 16.1157C24.9933 16.1155 24.9932 16.1152 24.9932 16.1151C24.9931 16.1148 24.9929 16.1145 25.9039 15.7021ZM22.3737 9.62656C20.6821 7.93502 19.2947 6.83736 18.3152 6.15592C17.8256 5.81526 17.4383 5.57888 17.1663 5.4245C17.0303 5.34731 16.9233 5.29064 16.8467 5.25171C16.8085 5.23224 16.7779 5.21722 16.7551 5.20627C16.7437 5.2008 16.7343 5.19635 16.7268 5.19288C16.7231 5.19114 16.7199 5.18965 16.7171 5.1884C16.7158 5.18777 16.7145 5.1872 16.7134 5.1867C16.7129 5.18644 16.7123 5.1862 16.7119 5.18598C16.7116 5.18587 16.7113 5.18571 16.7111 5.18566C16.7108 5.1855 16.7105 5.18535 16.2981 6.09638C15.8857 7.00742 15.8855 7.00729 15.8851 7.00709C15.8851 7.00709 15.8847 7.00696 15.8845 7.00689C15.8842 7.00669 15.8839 7.00656 15.8835 7.00642C15.8829 7.00616 15.8825 7.00589 15.8821 7.00576C15.8814 7.00542 15.8812 7.00529 15.8815 7.00542C15.8821 7.00569 15.8846 7.00689 15.8892 7.00909C15.8983 7.01349 15.9153 7.02176 15.9399 7.03436C15.9893 7.05942 16.0695 7.10162 16.1789 7.16376C16.3976 7.28789 16.7333 7.49176 17.173 7.79769C18.0523 8.40942 19.3491 9.43036 20.9595 11.0408L22.3737 9.62656Z" fill="#86AFF4"/>
<path d="M12.9593 28.4441C11.9264 27.0428 10.4306 25.1826 8.56393 23.3225C6.755 21.5198 4.94607 20.0641 3.55615 19.0391" stroke="#86AFF4" stroke-width="3" stroke-linecap="round" stroke-linejoin="round"/>
<path d="M17.4857 5.19097C17.9592 5.47512 18.5735 5.32155 18.8576 4.84797C19.1418 4.37439 18.9882 3.76013 18.5146 3.47598L17.4857 5.19097ZM15.1006 3.41876L15.231 2.4273L15.1006 3.41876ZM13.2191 4.11452L13.9262 4.82163L13.2191 4.11452ZM6.62639 9.29304C6.23586 9.68357 6.23586 10.3167 6.62639 10.7072C7.0169 11.0978 7.6501 11.0978 8.04063 10.7072L6.62639 9.29304ZM18.5146 3.47598C17.4077 2.81182 16.106 2.5424 15.231 2.4273L14.9702 4.41022C15.7444 4.51206 16.7266 4.73549 17.4857 5.19097L18.5146 3.47598ZM12.512 3.40742L6.62639 9.29304L8.04063 10.7072L13.9262 4.82163L12.512 3.40742ZM15.231 2.4273C14.166 2.2872 13.1889 2.7305 12.512 3.40742L13.9262 4.82163C14.2495 4.49836 14.6328 4.36584 14.9702 4.41022L15.231 2.4273Z" fill="#86AFF4"/>
<path d="M4 28L2 30" stroke="#86AFF4" stroke-width="3" stroke-linecap="round" stroke-linejoin="round"/>
</g>
<defs>
<clipPath id="clip0_160_3305">
<rect width="32" height="32" fill="white"/>
</clipPath>
</defs>
</svg>
